<svg width="16" height="16" viewBox="0 0 16 16" fill="#000000" xmlns="http://www.w3.org/2000/svg">
<path fill-rule="evenodd" clip-rule="evenodd" d="M11.652 0.000165807C10.502 -0.00982761 9.39402 0.432269 8.56679 1.23124L8.55924 1.23864L7.30188 2.48868C7.01557 2.77333 7.01422 3.23618 7.29887 3.52249C7.58352 3.80881 8.04637 3.81016 8.33268 3.52551L9.58609 2.27939C10.1372 1.74894 10.8743 1.4555 11.6393 1.46215C12.406 1.46881 13.1394 1.77634 13.6815 2.31848C14.2237 2.86063 14.5312 3.59403 14.5378 4.36071C14.5445 5.1254 14.2513 5.86217 13.7213 6.41319L11.533 8.60149C11.2365 8.89795 10.8797 9.12721 10.4869 9.27371C10.094 9.4202 9.67424 9.48052 9.25602 9.45057C8.8378 9.42062 8.43091 9.3011 8.06293 9.10011C7.69496 8.89912 7.37449 8.62136 7.12327 8.28567C6.88137 7.96243 6.42323 7.8965 6.1 8.1384C5.77676 8.3803 5.71082 8.83843 5.95272 9.16167C6.32953 9.66517 6.81018 10.0818 7.3621 10.3832C7.91402 10.6847 8.5243 10.8639 9.15158 10.9089C9.77885 10.9538 10.4085 10.8633 10.9977 10.6436C11.5869 10.4239 12.1221 10.08 12.5668 9.63533L14.7599 7.44227L14.7688 7.43321C15.5677 6.60598 16.0098 5.49803 15.9998 4.34801C15.9898 3.19798 15.5286 2.09789 14.7153 1.28467C13.9021 0.471443 12.802 0.0101592 11.652 0.000165807ZM6.84845 5.07605C6.22111 5.03113 5.59144 5.12164 5.00216 5.34146C4.41292 5.56126 3.87774 5.90531 3.43311 6.35008L1.24014 8.54304L1.23124 8.5521C0.432268 9.37934 -0.00982761 10.4873 0.000165807 11.6373C0.0101592 12.7873 0.471443 13.8874 1.28467 14.7006C2.09789 15.5139 3.19798 15.9752 4.34801 15.9851C5.49803 15.9951 6.60598 15.553 7.43321 14.7541L7.44227 14.7452L8.69231 13.4951C8.9778 13.2096 8.9778 12.7468 8.69231 12.4613C8.40683 12.1758 7.94398 12.1758 7.6585 12.4613L6.41318 13.7066C5.86216 14.2366 5.12539 14.5298 4.36071 14.5232C3.59403 14.5165 2.86063 14.209 2.31848 13.6668C1.77634 13.1247 1.46881 12.3913 1.46215 11.6246C1.45551 10.8599 1.74868 10.1231 2.2787 9.57212L4.46711 7.38371C4.76355 7.08716 5.12029 6.85784 5.51315 6.7113C5.906 6.56475 6.32578 6.50441 6.74401 6.53436C7.16223 6.56431 7.56913 6.68386 7.93709 6.88489C8.30505 7.08593 8.62547 7.36375 8.87663 7.69951C9.11845 8.0228 9.57657 8.08884 9.89987 7.84702C10.2232 7.60519 10.2892 7.14707 10.0474 6.82378C9.67065 6.32014 9.19001 5.90341 8.63807 5.60186C8.08613 5.3003 7.47579 5.12098 6.84845 5.07605Z" fill="#000000"/>
</svg>
